<svg viewBox="0 0 440 135" fill="none" xmlns="http://www.w3.org/2000/svg">
<rect y="62" width="66" height="66" fill="#0EA5E9"/>
<rect x="76" y="93" width="42" height="42" fill="#0EA5E9"/>
<rect x="24" y="10" width="42" height="43" fill="#0EA5E9"/>
<rect x="76" y="35" width="66" height="49" fill="#0EA5E9"/>
<rect x="76" width="42" height="25" fill="#0EA5E9"/>
<path d="M194.883 115C187.587 115 181.891 113.528 177.795 110.584C173.742 107.64 171.203 103.096 170.179 96.952C170.008 95.0747 170.392 93.6667 171.331 92.728C172.27 91.7893 173.635 91.32 175.427 91.32C177.219 91.32 178.52 91.7467 179.331 92.6C180.184 93.4533 180.76 94.776 181.059 96.568C181.699 99.512 183.064 101.539 185.155 102.648C187.288 103.715 190.531 104.248 194.883 104.248H213.315C218.819 104.248 222.552 103.267 224.515 101.304C226.52 99.2987 227.523 95.5867 227.523 90.168C227.523 84.664 226.499 80.9093 224.451 78.904C222.403 76.856 218.691 75.832 213.315 75.832H197.443C189.379 75.832 183.384 73.8693 179.459 69.944C175.576 65.976 173.635 59.96 173.635 51.896C173.635 43.8747 175.555 37.9227 179.395 34.04C183.278 30.1573 189.251 28.216 197.315 28.216H212.547C219.331 28.216 224.643 29.6027 228.483 32.376C232.366 35.1493 234.819 39.3947 235.843 45.112C236.099 46.9467 235.758 48.3547 234.819 49.336C233.88 50.2747 232.472 50.744 230.595 50.744C228.888 50.744 227.608 50.296 226.755 49.4C225.902 48.504 225.347 47.2027 225.091 45.496C224.408 42.9787 223.107 41.272 221.187 40.376C219.267 39.4373 216.387 38.968 212.547 38.968H197.315C192.195 38.968 188.76 39.8853 187.011 41.72C185.262 43.512 184.387 46.904 184.387 51.896C184.387 56.9307 185.283 60.3867 187.075 62.264C188.867 64.1413 192.323 65.08 197.443 65.08H213.315C221.72 65.08 227.971 67.128 232.067 71.224C236.206 75.32 238.275 81.6347 238.275 90.168C238.275 98.6587 236.227 104.931 232.131 108.984C228.035 112.995 221.763 115 213.315 115H194.883ZM267.188 115C263.604 115 261.812 113.208 261.812 109.624V33.592C261.812 30.008 263.604 28.216 267.188 28.216H298.036C309.172 28.216 317.364 30.8613 322.612 36.152C327.903 41.4 330.548 49.592 330.548 60.728V82.488C330.548 93.624 327.924 101.837 322.676 107.128C317.471 112.376 309.257 115 298.036 115H267.188ZM272.564 104.248H298.036C303.497 104.248 307.807 103.587 310.964 102.264C314.164 100.899 316.425 98.6373 317.748 95.48C319.113 92.28 319.796 87.9493 319.796 82.488V60.728C319.796 55.3093 319.113 51.0213 317.748 47.864C316.425 44.664 314.164 42.3813 310.964 41.016C307.807 39.6507 303.497 38.968 298.036 38.968H272.564V104.248ZM379.662 115C369.891 115 362.659 112.675 357.966 108.024C353.315 103.331 350.99 96.0987 350.99 86.328V56.888C350.99 47.032 353.315 39.7787 357.966 35.128C362.617 30.4347 369.806 28.1307 379.534 28.216H395.022C403.043 28.216 409.166 29.88 413.39 33.208C417.614 36.4933 420.067 41.6987 420.75 48.824C421.006 50.616 420.665 51.9813 419.726 52.92C418.787 53.8587 417.422 54.328 415.63 54.328C412.387 54.328 410.51 52.536 409.998 48.952C409.571 45.0267 408.206 42.3813 405.902 41.016C403.641 39.6507 400.014 38.968 395.022 38.968H379.534C375.011 38.9253 371.449 39.4373 368.846 40.504C366.286 41.5707 364.451 43.4267 363.342 46.072C362.275 48.6747 361.742 52.28 361.742 56.888V86.328C361.742 90.8933 362.275 94.4773 363.342 97.08C364.451 99.6827 366.307 101.539 368.91 102.648C371.513 103.715 375.097 104.248 379.662 104.248H395.022C398.99 104.248 402.083 103.821 404.302 102.968C406.563 102.072 408.142 100.515 409.038 98.296C409.934 96.0773 410.382 92.9413 410.382 88.888V82.872L400.398 82.744C396.814 82.744 395.022 80.952 395.022 77.368C395.022 73.784 396.814 71.992 400.398 71.992L415.758 72.12C419.342 72.12 421.134 73.912 421.134 77.496V88.888C421.134 97.976 419.022 104.611 414.798 108.792C410.574 112.931 403.982 115 395.022 115H379.662Z" fill="#0EA5E9"/>
</svg>
