<svg class="svg-icon" style="width: 1em; height: 1em;vertical-align: middle;fill: currentColor;overflow: hidden;" viewBox="0 0 1024 1024" version="1.1" xmlns="http://www.w3.org/2000/svg"><path d="M911.242667 708.565333q0 15.424-5.717333 40.277333t-12.010667 39.146667q-12.010667 28.565333-69.717333 60.565333-53.717333 29.141333-106.282667 29.141333-15.424 0-29.994667-2.005333t-32.853333-7.146667-27.136-8.277333-31.722667-11.712-28.010667-10.282667q-56-20.010667-100.010667-47.424-73.152-45.141333-151.146667-123.136t-123.136-151.146667q-27.434667-44.010667-47.424-100.010667-1.706667-5.141333-10.282667-28.010667t-11.712-31.722667-8.277333-27.136-7.146667-32.853333-2.005333-29.994667q0-52.565333 29.141333-106.282667 32-57.706667 60.565333-69.717333 14.293333-6.293333 39.146667-12.010667t40.277333-5.717333q8 0 12.010667 1.706667 10.282667 3.434667 30.293333 43.434667 6.293333 10.858667 17.152 30.848t20.010667 36.288 17.706667 30.570667q1.706667 2.282667 10.005333 14.293333t12.288 20.288 4.010667 16.277333q0 11.434667-16.277333 28.565333t-35.434667 31.424-35.434667 30.293333-16.277333 26.282667q0 5.141333 2.858667 12.864t4.864 11.712 8 13.717333 6.570667 10.858667q43.434667 78.293333 99.434667 134.293333t134.293333 99.434667q1.152 0.576 10.858667 6.570667t13.717333 8 11.712 4.864 12.864 2.858667q10.282667 0 26.282667-16.277333t30.293333-35.434667 31.424-35.434667 28.565333-16.277333q8 0 16.277333 4.010667t20.288 12.288 14.293333 10.005333q14.293333 8.576 30.570667 17.706667t36.288 20.010667 30.848 17.152q40 20.010667 43.434667 30.293333 1.706667 4.010667 1.706667 12.010667z"  /></svg>