<svg class="svg-icon" style="width: 1em; height: 1em;vertical-align: middle;fill: currentColor;overflow: hidden;" viewBox="0 0 1024 1024" version="1.1" xmlns="http://www.w3.org/2000/svg"><path d="M836.522667 187.463111C749.866667 100.792889 634.609778 53.048889 512.028444 53.048889 258.958222 53.048889 53.063111 258.944 53.048889 512c0.014222 253.056 205.909333 458.951111 458.979555 458.951111 122.581333 0 237.838222-47.744 324.494223-134.442667C923.235556 749.838222 970.965333 634.581333 970.951111 512c0.014222-122.581333-47.729778-237.838222-134.428444-324.536889z m-70.641778 494.520889c11.619556-45.312 18.759111-94.350222 20.465778-145.706667h126.919111a398.094222 398.094222 0 0 1-70.769778 204.643556c-16.113778-22.357333-42.439111-42.368-76.615111-58.936889zM590.634667 906.396444a404.536889 404.536889 0 0 1-61.496889 7.239112V661.205333c77.781333 1.792 149.148444 15.644444 203.093333 36.949334-28.928 97.379556-79.800889 172.970667-141.596444 208.241777zM291.797333 698.140444c55.281778-21.831111 128.881778-35.811556 208.896-37.020444v252.643556a403.399111 403.399111 0 0 1-67.584-7.523556c-61.667556-35.370667-112.426667-110.876444-141.312-208.099556z m-110.165333 42.595556a399.488 399.488 0 0 1-70.883556-204.458667h126.933334c1.720889 51.342222 8.860444 100.394667 20.48 145.692445-34.104889 16.526222-60.401778 36.48-76.529778 58.766222zM110.037333 507.832889a399.544889 399.544889 0 0 1 65.863111-216.092445c14.691556 24.974222 41.870222 47.36 78.492445 65.678223-10.780444 46.933333-16.782222 97.592889-17.080889 150.414222H110.037333z m156.103111 28.444444h37.077334a14.222222 14.222222 0 1 0 0-28.444444h-37.461334c0.284444-48.64 5.489778-95.331556 14.876445-138.652445 58.538667 23.608889 134.997333 38.158222 220.074667 39.352889v99.299556H374.328889a14.222222 14.222222 0 1 0 0 28.444444h126.364444v96.398223c-83.299556 1.166222-158.336 15.118222-216.391111 37.888a662.044444 662.044444 0 0 1-18.161778-134.286223zM433.095111 117.76a400.782222 400.782222 0 0 1 67.598222-7.537778v269.866667c-82.119111-1.237333-157.525333-15.914667-213.276444-38.741333 27.960889-104.647111 80.768-186.368 145.678222-223.587556z m303.502222 223.587556c-54.414222 22.286222-127.601778 36.821333-207.459555 38.656V110.350222c20.835556 0.867556 41.386667 3.256889 61.511111 7.239111 65.038222 37.134222 117.944889 118.940444 145.948444 223.758223zM529.137778 408.462222c82.744889-1.763556 157.056-16.199111 214.257778-39.281778 9.386667 43.320889 14.577778 90.012444 14.876444 138.652445H529.137778V408.462222z m0 224.284445v-96.469334h228.750222a663.182222 663.182222 0 0 1-18.161778 134.300445c-56.718222-22.229333-129.607111-36.110222-210.588444-37.831111z m257.564444-124.913778c-0.298667-52.821333-6.286222-103.480889-17.066666-150.414222 36.736-18.389333 63.971556-40.860444 78.634666-65.948445 42.026667 63.800889 64.896 138.311111 65.678222 216.348445h-127.246222z m42.638222-242.631111c-7.708444 23.836444-31.601778 45.909333-66.872888 64.199111-21.916444-78.421333-57.457778-144.739556-101.731556-191.075556a401.180444 401.180444 0 0 1 168.604444 126.876445zM362.951111 138.709333c-44.117333 46.307556-79.516444 112.483556-101.376 190.691556-35.157333-18.232889-59.008-40.206222-66.801778-63.957333A404.010667 404.010667 0 0 1 362.951111 138.709333zM199.594667 764.700444c11.264-20.465778 34.432-39.324444 66.346666-55.168 22.072889 71.708444 55.736889 132.423111 97.009778 175.744a403.84 403.84 0 0 1-163.356444-120.576z m461.127111 120.96c41.443556-43.363556 75.235556-104.206222 97.365333-176.113777 32 15.886222 55.224889 34.816 66.446222 55.367111-8.832 10.851556-18.218667 21.333333-28.245333 31.36a400.952889 400.952889 0 0 1-135.566222 89.386666z" fill="" /></svg>